<svg version="1.1" id="Layer_1" xmlns="http://www.w3.org/2000/svg" xmlns:xlink="http://www.w3.org/1999/xlink" x="0px" y="0px"
	 width="100%" viewBox="0 0 202 205" enable-background="new 0 0 202 205" xml:space="preserve">
<path fill="#FBFBFE" opacity="1.000000" stroke="none" 
	d="
M1.000000,83.000000 
	C1.000000,55.699368 1.000000,28.398733 1.000000,1.049049 
	C68.220055,1.049049 135.440155,1.049049 203.000000,1.049049 
	C203.000000,28.019945 203.000000,55.041313 202.791992,82.525452 
	C202.584000,82.988228 202.167862,82.991570 202.103149,82.527397 
	C202.027252,75.568130 202.045898,69.072830 201.999741,62.577991 
	C201.804184,35.064602 183.243698,10.746783 156.228668,5.114163 
	C144.526535,2.674273 132.099518,3.711051 119.537529,3.099873 
	C104.049850,3.077233 89.026405,3.123352 73.538864,3.100380 
	C59.886246,2.665152 46.797222,2.868371 34.521774,9.790976 
	C29.009989,13.865326 23.844522,17.857187 18.389601,22.006842 
	C15.026178,26.700798 11.952210,31.236961 8.608952,36.010445 
	C1.524528,49.110840 1.534111,63.008900 2.089784,77.423981 
	C1.957010,79.562103 1.893860,81.276581 1.622992,82.989502 
	C1.415274,82.987938 1.000000,83.000000 1.000000,83.000000 
z"/>
<path fill="#F5F1FE" opacity="1.000000" stroke="none" 
	d="
M202.167862,82.991570 
	C202.167862,82.991570 202.584000,82.988228 202.791992,82.994110 
	C203.000000,124.000046 203.000000,165.000092 203.000000,206.000000 
	C195.895157,206.000000 188.916367,206.000000 181.504547,205.645355 
	C181.988281,203.745712 182.867889,202.177246 183.827957,200.659668 
	C189.065887,192.380249 193.785416,183.912766 193.936005,173.375244 
	C200.021591,162.117081 202.795135,150.473785 201.899933,137.532196 
	C201.920334,119.711349 201.874481,102.354698 201.897156,84.665169 
	C202.033066,83.885376 202.100464,83.438477 202.167862,82.991570 
z"/>
<path fill="#F5F1FE" opacity="1.000000" stroke="none" 
	d="
M1.000000,83.468658 
	C1.000000,83.000000 1.415274,82.987938 1.695237,83.453934 
	C2.038633,97.945450 2.102065,111.970978 2.097620,126.461121 
	C1.430077,143.094254 1.669083,159.117477 10.096605,174.157440 
	C11.552170,180.092651 12.533042,185.797668 14.686563,191.019043 
	C16.849592,196.263504 20.180756,201.026184 23.000000,206.000000 
	C15.688861,206.000000 8.377721,206.000000 1.000000,206.000000 
	C1.000000,165.312454 1.000000,124.624886 1.000000,83.468658 
z"/>
<path fill="#F0EAFD" opacity="1.000000" stroke="none" 
	d="
M193.863586,173.713593 
	C193.785416,183.912766 189.065887,192.380249 183.827957,200.659668 
	C182.867889,202.177246 181.988281,203.745712 181.035767,205.645355 
	C176.310745,206.000000 171.621490,206.000000 166.502441,205.653091 
	C167.137634,204.158432 168.335281,203.105835 169.240448,201.843491 
	C171.244644,199.048523 173.101913,196.148193 175.270172,193.056595 
	C177.722046,190.974823 179.922836,189.127304 182.427216,187.122437 
	C186.441727,182.547928 190.152664,178.130768 193.863586,173.713593 
z"/>
<path fill="#F0EAFD" opacity="1.000000" stroke="none" 
	d="
M23.464651,206.000000 
	C20.180756,201.026184 16.849592,196.263504 14.686563,191.019043 
	C12.533042,185.797668 11.552170,180.092651 10.367987,174.368149 
	C16.779596,180.519577 22.880341,186.902557 28.992079,193.638382 
	C30.236435,196.061722 31.391232,198.184540 32.725277,200.188004 
	C34.056721,202.187561 35.567719,204.067581 37.000000,206.000000 
	C32.643101,206.000000 28.286201,206.000000 23.464651,206.000000 
z"/>
<path fill="#E5DAFC" opacity="1.000000" stroke="none" 
	d="
M145.000000,206.000000 
	C116.312439,206.000000 87.624878,206.000000 58.468521,205.638275 
	C57.997578,204.553116 57.995430,203.829681 58.459282,203.048340 
	C65.618073,202.939697 72.310860,202.888977 79.468224,202.901337 
	C96.621719,202.921173 113.310646,202.877930 130.462082,202.898376 
	C135.619095,203.021133 140.313614,203.080170 145.005783,203.496796 
	C145.002304,204.569595 145.001144,205.284805 145.000000,206.000000 
z"/>
<path fill="#EAE3FC" opacity="1.000000" stroke="none" 
	d="
M57.993282,203.106247 
	C57.995430,203.829681 57.997578,204.553116 57.999863,205.638275 
	C51.312355,206.000000 44.624710,206.000000 37.468533,206.000000 
	C35.567719,204.067581 34.056721,202.187561 32.725277,200.188004 
	C31.391232,198.184540 30.236435,196.061722 29.308537,193.739716 
	C38.288612,199.010925 47.785606,202.107071 57.993282,203.106247 
z"/>
<path fill="#EAE3FC" opacity="1.000000" stroke="none" 
	d="
M145.468536,206.000000 
	C145.001144,205.284805 145.002304,204.569595 145.416916,203.415466 
	C156.359146,202.156418 166.004425,198.673813 175.019104,193.290833 
	C173.101913,196.148193 171.244644,199.048523 169.240448,201.843491 
	C168.335281,203.105835 167.137634,204.158432 166.036331,205.653091 
	C159.312363,206.000000 152.624710,206.000000 145.468536,206.000000 
z"/>
<path fill="#5B43E7" opacity="1.000000" stroke="none" 
	d="
M201.828644,84.998055 
	C201.874481,102.354698 201.920334,119.711349 201.546051,137.527679 
	C199.516510,136.924118 197.674484,136.094986 196.332993,134.762070 
	C179.448593,117.985657 162.662430,101.110298 145.758469,84.353752 
	C144.344391,82.952003 142.261383,82.225082 140.277588,80.946320 
	C138.218201,78.825531 136.228027,77.058640 134.572601,75.019936 
	C133.469971,73.662003 132.097321,71.900848 132.129532,70.346802 
	C132.313324,61.483963 128.168915,55.888550 119.964859,52.638813 
	C118.808418,50.886196 117.810768,49.354515 116.548439,48.086285 
	C103.407822,34.884312 90.189293,21.759577 77.104774,8.502491 
	C75.705811,7.085084 75.019730,4.964080 74.002953,3.169472 
	C89.026405,3.123352 104.049850,3.077233 119.580093,3.440136 
	C121.392555,5.734074 122.448990,7.867117 124.041328,9.466672 
	C147.861389,33.394577 171.728806,57.275593 195.676285,81.075874 
	C197.361679,82.750908 199.761200,83.707428 201.828644,84.998055 
z"/>
<path fill="#703DEB" opacity="1.000000" stroke="none" 
	d="
M129.999573,202.834671 
	C113.310646,202.877930 96.621719,202.921173 79.461456,202.547852 
	C78.043167,200.637329 77.332741,198.907837 76.114258,197.684311 
	C53.180912,174.656006 30.206188,151.668716 7.156884,128.756592 
	C5.860017,127.467438 3.845824,126.899902 2.165496,125.996498 
	C2.102065,111.970978 2.038633,97.945450 1.902956,83.455490 
	C1.893860,81.276581 1.957010,79.562103 2.422771,77.466370 
	C4.219836,78.226326 5.721531,79.259842 6.992214,80.525330 
	C20.168089,93.647331 33.271854,106.842056 46.506546,119.904236 
	C47.921387,121.300652 50.039745,121.984245 51.900570,123.462540 
	C51.979168,128.059769 51.972374,132.193085 52.001961,136.326141 
	C52.077049,146.814987 58.050304,152.808731 68.636459,152.994659 
	C73.757660,153.084610 78.879951,153.112289 84.044914,153.501328 
	C85.227440,155.225052 86.260117,156.721832 87.522667,157.989731 
	C100.260689,170.781799 113.082108,183.491302 125.749123,196.352997 
	C127.526894,198.158066 128.600189,200.656952 129.999573,202.834671 
z"/>
<path fill="#5645E6" opacity="1.000000" stroke="none" 
	d="
M201.897156,84.665169 
	C199.761200,83.707428 197.361679,82.750908 195.676285,81.075874 
	C171.728806,57.275593 147.861389,33.394577 124.041328,9.466672 
	C122.448990,7.867117 121.392555,5.734074 120.044312,3.508894 
	C132.099518,3.711051 144.526535,2.674273 156.228668,5.114163 
	C183.243698,10.746783 201.804184,35.064602 201.999741,62.577991 
	C202.045898,69.072830 202.027252,75.568130 202.103149,82.527397 
	C202.100464,83.438477 202.033066,83.885376 201.897156,84.665169 
z"/>
<path fill="#6B3FEA" opacity="1.000000" stroke="none" 
	d="
M51.831745,122.998520 
	C50.039745,121.984245 47.921387,121.300652 46.506546,119.904236 
	C33.271854,106.842056 20.168089,93.647331 6.992214,80.525330 
	C5.721531,79.259842 4.219836,78.226326 2.492395,77.042725 
	C1.534111,63.008900 1.524528,49.110840 8.759308,36.328217 
	C25.300220,52.619534 41.399426,68.852539 57.593750,84.990089 
	C58.642849,86.035515 60.424080,86.346237 61.921944,87.424515 
	C62.605255,91.586731 61.554733,94.152214 58.004742,96.299919 
	C53.837845,98.820854 52.086533,103.233032 52.010174,108.156555 
	C51.933453,113.103607 51.889858,118.051170 51.831745,122.998520 
z"/>
<path fill="#6142E8" opacity="1.000000" stroke="none" 
	d="
M73.538864,3.100381 
	C75.019730,4.964080 75.705811,7.085084 77.104774,8.502491 
	C90.189293,21.759577 103.407822,34.884312 116.548439,48.086285 
	C117.810768,49.354515 118.808418,50.886196 119.497810,52.682869 
	C108.980087,53.046059 98.884911,52.776333 88.811447,53.128162 
	C85.178329,53.255051 81.597351,54.874287 77.950607,55.472641 
	C76.601013,53.250458 75.527130,51.139336 73.946327,49.524433 
	C66.039940,41.447495 57.960903,33.539867 50.022327,25.494022 
	C44.899834,20.302311 39.914757,14.975017 34.868095,9.708487 
	C46.797222,2.868371 59.886246,2.665152 73.538864,3.100381 
z"/>
<path fill="#6740E9" opacity="1.000000" stroke="none" 
	d="
M61.864742,86.998718 
	C60.424080,86.346237 58.642849,86.035515 57.593750,84.990089 
	C41.399426,68.852539 25.300220,52.619534 9.028599,36.090897 
	C11.952210,31.236961 15.026178,26.700798 18.716902,22.153147 
	C35.692242,38.400944 52.064289,54.646778 68.371826,70.957100 
	C69.236237,71.821663 69.555321,73.231453 69.917747,74.632690 
	C64.778084,77.420357 62.808998,81.877991 61.864742,86.998718 
z"/>
<path fill="#6540E9" opacity="1.000000" stroke="none" 
	d="
M70.128273,74.387421 
	C69.555321,73.231453 69.236237,71.821663 68.371826,70.957100 
	C52.064289,54.646778 35.692242,38.400944 19.006355,21.995354 
	C23.844522,17.857187 29.009989,13.865326 34.521774,9.790975 
	C39.914757,14.975017 44.899834,20.302311 50.022327,25.494022 
	C57.960903,33.539867 66.039940,41.447495 73.946327,49.524433 
	C75.527130,51.139336 76.601013,53.250458 77.744263,55.758644 
	C72.738411,59.293346 72.166412,64.020920 71.912727,69.047302 
	C71.821602,70.852768 70.751549,72.608818 70.128273,74.387421 
z"/>
<path fill="#6242E8" opacity="1.000000" stroke="none" 
	d="
M140.489151,81.184647 
	C142.261383,82.225082 144.344391,82.952003 145.758469,84.353752 
	C162.662430,101.110298 179.448593,117.985657 196.332993,134.762070 
	C197.674484,136.094986 199.516510,136.924118 201.479797,137.991882 
	C202.795135,150.473785 200.021591,162.117081 193.936005,173.375244 
	C190.152664,178.130768 186.441727,182.547928 182.282745,186.797714 
	C171.307816,176.004913 160.746506,165.413116 150.294006,154.715012 
	C148.853668,153.240829 147.952835,151.239517 146.988495,149.219177 
	C148.782867,145.091293 151.500198,141.304535 151.778717,137.346191 
	C152.453476,127.756226 152.203293,118.078888 151.863419,108.453087 
	C151.757874,105.463539 151.088120,101.300575 149.084015,99.795517 
	C143.110764,95.309631 141.350479,89.423759 140.920135,82.612579 
	C140.889618,82.129456 140.637985,81.660301 140.489151,81.184647 
z"/>
<path fill="#763DEC" opacity="1.000000" stroke="none" 
	d="
M2.097620,126.461121 
	C3.845824,126.899902 5.860017,127.467438 7.156884,128.756592 
	C30.206188,151.668716 53.180912,174.656006 76.114258,197.684311 
	C77.332741,198.907837 78.043167,200.637329 78.996887,202.484772 
	C72.310860,202.888977 65.618073,202.939697 58.459282,203.048340 
	C47.785606,202.107071 38.288612,199.010925 29.297543,193.386887 
	C22.880341,186.902557 16.779596,180.519577 10.407469,173.925888 
	C1.669083,159.117477 1.430077,143.094254 2.097620,126.461121 
z"/>
<path fill="#6A3FEA" opacity="1.000000" stroke="none" 
	d="
M146.802231,149.482254 
	C147.952835,151.239517 148.853668,153.240829 150.294006,154.715012 
	C160.746506,165.413116 171.307816,176.004913 181.979156,186.955048 
	C179.922836,189.127304 177.722046,190.974823 175.270172,193.056595 
	C166.004425,198.673813 156.359146,202.156418 145.419250,203.057877 
	C140.313614,203.080170 135.619095,203.021133 130.462082,202.898376 
	C128.600189,200.656952 127.526894,198.158066 125.749123,196.352997 
	C113.082108,183.491302 100.260689,170.781799 87.522667,157.989731 
	C86.260117,156.721832 85.227440,155.225052 84.509232,153.433990 
	C101.329063,153.022354 117.733559,153.246384 134.122406,152.839523 
	C138.374176,152.733978 142.576950,150.654861 146.802231,149.482254 
z"/>
<path fill="#FEFEFF" opacity="1.000000" stroke="none" 
	d="
M146.988495,149.219177 
	C142.576950,150.654861 138.374176,152.733978 134.122406,152.839523 
	C117.733559,153.246384 101.329063,153.022354 84.466080,153.100830 
	C78.879951,153.112289 73.757660,153.084610 68.636459,152.994659 
	C58.050304,152.808731 52.077049,146.814987 52.001961,136.326141 
	C51.972374,132.193085 51.979168,128.059769 51.900570,123.462540 
	C51.889858,118.051170 51.933453,113.103607 52.010174,108.156555 
	C52.086533,103.233032 53.837845,98.820854 58.004742,96.299919 
	C61.554733,94.152214 62.605255,91.586731 61.921944,87.424515 
	C62.808998,81.877991 64.778084,77.420357 69.917747,74.632690 
	C70.751549,72.608818 71.821602,70.852768 71.912727,69.047302 
	C72.166412,64.020920 72.738411,59.293346 77.786240,56.098511 
	C81.597351,54.874287 85.178329,53.255051 88.811447,53.128162 
	C98.884911,52.776333 108.980087,53.046059 119.533722,53.026108 
	C128.168915,55.888550 132.313324,61.483963 132.129532,70.346802 
	C132.097321,71.900848 133.469971,73.662003 134.572601,75.019936 
	C136.228027,77.058640 138.218201,78.825531 140.277588,80.946320 
	C140.637985,81.660301 140.889618,82.129456 140.920135,82.612579 
	C141.350479,89.423759 143.110764,95.309631 149.084015,99.795517 
	C151.088120,101.300575 151.757874,105.463539 151.863419,108.453087 
	C152.203293,118.078888 152.453476,127.756226 151.778717,137.346191 
	C151.500198,141.304535 148.782867,145.091293 146.988495,149.219177 
M106.928162,92.968193 
	C115.174454,92.968193 123.420746,92.968193 131.605957,92.968193 
	C132.490982,84.424385 131.254974,82.986351 123.364777,83.008286 
	C115.576530,83.029945 107.788467,83.112068 99.072121,83.029747 
	C92.771385,83.020882 86.470619,82.997833 80.169914,83.006821 
	C72.645203,83.017548 70.922470,85.285286 72.754364,92.832458 
	C83.820930,92.832458 94.910156,92.832458 106.928162,92.968193 
M115.930710,142.967331 
	C122.426796,142.976212 128.922882,142.991730 135.418976,142.991592 
	C139.591934,142.991516 142.024323,141.200272 142.006134,136.723282 
	C141.968887,127.562141 141.999588,118.400749 141.995056,109.239456 
	C141.993073,105.224182 140.139801,102.989227 135.959991,103.001801 
	C116.974487,103.058922 97.988991,103.112610 78.083389,103.029884 
	C74.918320,103.020935 71.751282,103.079330 68.588638,102.987137 
	C63.928902,102.851295 61.948437,105.149605 61.984131,109.688599 
	C62.053566,118.517250 62.089203,127.347946 61.971600,136.175568 
	C61.910255,140.780319 63.992359,143.002457 68.534828,142.989059 
	C84.024086,142.943375 99.513306,142.885483 115.930710,142.967331 
M103.495041,63.000843 
	C99.177933,63.001438 94.860809,62.996986 90.543709,63.003727 
	C82.688034,63.015995 81.379921,64.558334 82.471947,72.769379 
	C95.481400,72.769379 108.521591,72.769379 121.531761,72.769379 
	C122.619087,64.561790 121.305946,63.013992 113.457565,63.000984 
	C110.468803,62.996029 107.480026,63.000580 103.495041,63.000843 
z"/>
<path fill="#6640E9" opacity="1.000000" stroke="none" 
	d="
M79.003487,103.167526 
	C97.988991,103.112610 116.974487,103.058922 135.959991,103.001801 
	C140.139801,102.989227 141.993073,105.224182 141.995056,109.239456 
	C141.999588,118.400749 141.968887,127.562141 142.006134,136.723282 
	C142.024323,141.200272 139.591934,142.991516 135.418976,142.991592 
	C128.922882,142.991730 122.426796,142.976212 115.460220,142.545868 
	C113.935234,140.525055 113.109550,138.699951 111.789780,137.362350 
	C101.922340,127.361633 91.933998,117.480270 82.052383,107.493401 
	C80.828674,106.256668 80.009903,104.619263 79.003487,103.167526 
z"/>
<path fill="#6B3FEA" opacity="1.000000" stroke="none" 
	d="
M78.543442,103.098709 
	C80.009903,104.619263 80.828674,106.256668 82.052383,107.493401 
	C91.933998,117.480270 101.922340,127.361633 111.789780,137.362350 
	C113.109550,138.699951 113.935234,140.525055 114.996132,142.478333 
	C99.513306,142.885483 84.024086,142.943375 68.534828,142.989059 
	C63.992359,143.002457 61.910255,140.780319 61.971600,136.175568 
	C62.089203,127.347946 62.053566,118.517250 61.984131,109.688599 
	C61.948437,105.149605 63.928902,102.851295 68.588638,102.987137 
	C71.751282,103.079330 74.918320,103.020935 78.543442,103.098709 
z"/>
<path fill="#6242E8" opacity="1.000000" stroke="none" 
	d="
M103.993149,63.000824 
	C107.480026,63.000580 110.468803,62.996029 113.457565,63.000984 
	C121.305946,63.013992 122.619087,64.561790 121.531761,72.769379 
	C108.521591,72.769379 95.481400,72.769379 82.471947,72.769379 
	C81.379921,64.558334 82.688034,63.015995 90.543709,63.003727 
	C94.860809,62.996986 99.177933,63.001438 103.993149,63.000824 
z"/>
<path fill="#6640E9" opacity="1.000000" stroke="none" 
	d="
M105.999374,92.832458 
	C94.910156,92.832458 83.820930,92.832458 72.754364,92.832458 
	C70.922470,85.285286 72.645203,83.017548 80.169914,83.006821 
	C86.470619,82.997833 92.771385,83.020882 99.541733,83.452271 
	C102.007355,86.860680 104.003365,89.846565 105.999374,92.832458 
z"/>
<path fill="#6242E8" opacity="1.000000" stroke="none" 
	d="
M106.463768,92.900330 
	C104.003365,89.846565 102.007355,86.860680 100.005829,83.521225 
	C107.788467,83.112068 115.576530,83.029945 123.364777,83.008286 
	C131.254974,82.986351 132.490982,84.424385 131.605957,92.968193 
	C123.420746,92.968193 115.174454,92.968193 106.463768,92.900330 
z"/>
</svg>